<?xml version="1.0" encoding="UTF-8" standalone="no"?>
<!DOCTYPE svg PUBLIC "-//W3C//DTD SVG 1.1//EN" "http://www.w3.org/Graphics/SVG/1.1/DTD/svg11.dtd">
<svg xmlns="http://www.w3.org/2000/svg" version="1.1" viewBox="0.00 0.00 500.00 500.00">
<g stroke-width="2.00" fill="none" stroke-linecap="butt">
<path stroke="#c4e9ff" vector-effect="non-scaling-stroke" d="
  M 253.51 122.47
  Q 255.60 122.43 257.43 120.80"
/>
<path stroke="#96a4b3" vector-effect="non-scaling-stroke" d="
  M 257.43 120.80
  Q 280.20 109.89 304.98 113.04
  C 308.46 113.48 312.19 114.82 315.79 115.69
  Q 316.91 115.96 316.13 115.12
  C 311.35 109.97 306.21 104.95 301.19 99.89
  C 278.10 76.63 242.17 71.80 214.37 88.70
  C 193.24 101.55 175.68 127.05 168.07 150.00
  C 162.81 165.87 163.26 180.74 167.11 196.87
  A 0.48 0.48 0.0 0 0 167.92 197.10
  C 173.39 191.47 179.46 185.90 184.66 180.61
  C 204.81 160.09 226.54 136.16 253.51 122.47"
/>
<path stroke="#5b8eb3" vector-effect="non-scaling-stroke" d="
  M 257.43 120.80
  Q 255.35 121.08 253.51 122.47"
/>
<path stroke="#c4e9ff" vector-effect="non-scaling-stroke" d="
  M 326.58 127.42
  C 289.04 104.49 245.76 129.98 218.88 156.37
  Q 194.53 180.29 170.64 204.15
  A 1.60 1.59 -33.6 0 0 170.29 205.88
  Q 179.53 228.48 196.42 246.08
  Q 197.09 246.78 197.77 246.10
  Q 224.87 219.04 251.68 192.19
  C 262.82 181.04 277.63 171.38 292.16 165.34
  Q 325.19 151.61 358.46 163.81
  C 360.89 164.71 364.98 166.66 368.31 168.12
  A 0.40 0.39 -10.6 0 0 368.75 167.48
  Q 354.29 152.89 339.69 138.42
  Q 331.83 130.62 326.58 127.42"
/>
<path stroke="#adcdea" vector-effect="non-scaling-stroke" d="
  M 182.65 240.27
  C 157.79 208.86 148.93 170.29 167.48 133.68
  Q 168.80 131.09 166.74 133.14
  Q 150.09 149.82 133.27 167.02
  Q 125.84 174.61 122.07 184.58
  C 106.73 225.21 136.37 264.36 162.99 290.77
  Q 182.87 310.50 202.60 330.40
  Q 203.43 331.23 204.10 331.75
  Q 204.53 332.08 205.03 331.88
  C 219.88 325.99 233.97 316.73 245.41 305.59
  Q 246.18 304.84 245.42 304.08
  Q 220.89 279.42 196.21 254.93
  Q 187.06 245.85 182.65 240.27"
/>
<path stroke="#8195a5" vector-effect="non-scaling-stroke" d="
  M 381.13 257.55
  C 389.64 275.21 392.90 297.43 386.40 316.28
  Q 385.77 318.11 387.14 316.75
  C 396.06 307.94 406.43 299.13 413.04 288.20
  C 428.58 262.52 426.60 229.37 407.20 206.30
  Q 392.11 188.36 369.38 176.09
  C 349.68 165.45 326.95 161.50 305.25 168.06
  A 0.43 0.43 0.0 0 0 305.08 168.78
  C 309.73 173.24 314.24 178.38 318.52 182.52
  C 327.70 191.39 336.65 200.47 345.68 209.48
  C 359.90 223.66 372.37 239.38 381.13 257.55"
/>
<path stroke="#adcdea" vector-effect="non-scaling-stroke" d="
  M 374.84 327.16
  C 398.05 289.27 371.18 244.54 344.44 217.81
  Q 321.02 194.41 297.81 171.24
  A 1.49 1.48 -33.7 0 0 296.19 170.92
  Q 273.47 180.40 255.60 197.32
  A 0.49 0.48 46.3 0 0 255.59 198.00
  Q 281.76 224.29 307.97 250.27
  C 321.96 264.14 332.84 280.80 339.18 299.41
  C 347.14 322.80 345.39 346.76 333.90 368.83
  Q 333.33 369.91 334.41 369.34
  Q 334.48 369.30 334.90 368.89
  Q 349.80 354.22 364.57 339.40
  Q 371.75 332.19 374.84 327.16"
/>
<path stroke="#8195a5" vector-effect="non-scaling-stroke" d="
  M 155.11 292.39
  C 131.04 268.46 110.38 238.42 111.89 203.76
  C 112.22 196.22 113.78 192.02 115.10 186.02
  A 0.41 0.41 0.0 0 0 114.42 185.63
  C 108.18 191.51 100.82 198.75 96.14 204.00
  C 82.35 219.44 75.94 239.93 78.68 260.47
  C 82.33 287.82 101.11 307.18 123.52 321.27
  C 146.30 335.61 170.36 342.10 196.39 334.60
  A 0.39 0.39 0.0 0 0 196.56 333.96
  Q 175.96 313.14 155.11 292.39"
/>
<path stroke="#c4e9ff" vector-effect="non-scaling-stroke" d="
  M 154.73 357.27
  C 162.40 364.99 168.03 371.33 175.46 375.57
  C 213.17 397.13 254.34 373.28 281.74 347.27
  Q 291.93 337.59 312.62 316.63
  C 318.45 310.72 324.27 304.18 330.53 298.76
  Q 331.68 297.77 331.25 296.74
  Q 322.03 274.18 304.95 256.38
  A 0.81 0.81 0.0 0 0 303.80 256.37
  C 286.70 273.42 269.29 290.36 252.55 307.88
  C 241.06 319.89 226.82 329.69 211.78 336.22
  Q 174.39 352.46 137.08 336.14
  Q 134.79 335.14 132.68 333.86
  A 0.24 0.24 0.0 0 0 132.31 334.08
  Q 132.35 334.51 132.67 334.84
  Q 143.64 346.11 154.73 357.27"
/>
<path stroke="#96a4b3" vector-effect="non-scaling-stroke" d="
  M 330.33 361.31
  Q 342.30 334.17 334.18 305.59
  Q 334.05 305.15 333.72 305.46
  C 294.77 341.71 249.35 405.51 185.44 386.89
  Q 184.33 386.56 185.13 387.40
  C 192.88 395.51 201.89 405.12 210.11 410.98
  C 237.32 430.38 273.92 427.51 298.53 405.02
  Q 319.51 385.84 330.33 361.31"
/>
</g>
<path fill="#ffffff" d="
  M 496.60 287.91
  C 488.22 343.92 460.86 394.72 419.61 433.34
  Q 417.99 434.86 414.45 437.66
  C 412.08 439.54 409.66 441.85 407.60 443.51
  Q 348.77 490.94 273.29 498.68
  C 270.70 498.95 266.54 498.90 263.14 499.31
  C 252.12 500.64 242.22 499.36 233.50 499.02
  Q 228.57 498.82 227.50 498.72
  C 176.40 493.69 127.91 474.01 88.93 440.56
  C 86.03 438.06 82.88 435.73 80.24 433.24
  C 73.59 426.94 67.35 420.57 61.35 413.63
  Q 18.53 364.11 5.41 299.76
  C 2.12 283.58 1.10 269.14 1.43 253.16
  Q 1.52 248.69 1.39 236.85
  C 1.23 221.69 3.81 206.30 7.26 192.00
  C 16.50 153.66 34.40 117.87 60.32 88.15
  C 62.05 86.16 63.63 83.86 65.29 82.03
  C 73.41 73.17 81.73 65.47 91.17 57.63
  Q 131.06 24.49 181.05 10.24
  C 192.61 6.95 204.28 4.11 216.25 2.78
  C 221.03 2.25 225.94 1.36 230.75 1.37
  Q 259.60 1.42 269.25 1.25
  C 272.11 1.20 274.74 1.91 276.91 2.00
  C 281.04 2.18 285.50 2.87 289.65 3.56
  Q 356.96 14.66 409.46 58.09
  C 418.91 65.91 427.52 73.97 435.71 83.28
  C 467.86 119.85 488.78 162.49 496.55 210.68
  C 497.40 215.99 497.67 221.42 498.41 226.74
  Q 498.89 230.18 498.82 233.05
  C 498.64 241.60 499.12 250.56 498.98 258.63
  Q 498.89 264.28 498.78 269.92
  C 498.73 272.58 497.94 275.30 497.82 278.15
  Q 497.74 279.96 497.22 282.29
  C 496.81 284.12 496.84 286.30 496.60 287.91
  Z
  M 253.51 122.47
  Q 255.60 122.43 257.43 120.80
  Q 280.20 109.89 304.98 113.04
  C 308.46 113.48 312.19 114.82 315.79 115.69
  Q 316.91 115.96 316.13 115.12
  C 311.35 109.97 306.21 104.95 301.19 99.89
  C 278.10 76.63 242.17 71.80 214.37 88.70
  C 193.24 101.55 175.68 127.05 168.07 150.00
  C 162.81 165.87 163.26 180.74 167.11 196.87
  A 0.48 0.48 0.0 0 0 167.92 197.10
  C 173.39 191.47 179.46 185.90 184.66 180.61
  C 204.81 160.09 226.54 136.16 253.51 122.47
  Z
  M 326.58 127.42
  C 289.04 104.49 245.76 129.98 218.88 156.37
  Q 194.53 180.29 170.64 204.15
  A 1.60 1.59 -33.6 0 0 170.29 205.88
  Q 179.53 228.48 196.42 246.08
  Q 197.09 246.78 197.77 246.10
  Q 224.87 219.04 251.68 192.19
  C 262.82 181.04 277.63 171.38 292.16 165.34
  Q 325.19 151.61 358.46 163.81
  C 360.89 164.71 364.98 166.66 368.31 168.12
  A 0.40 0.39 -10.6 0 0 368.75 167.48
  Q 354.29 152.89 339.69 138.42
  Q 331.83 130.62 326.58 127.42
  Z
  M 182.65 240.27
  C 157.79 208.86 148.93 170.29 167.48 133.68
  Q 168.80 131.09 166.74 133.14
  Q 150.09 149.82 133.27 167.02
  Q 125.84 174.61 122.07 184.58
  C 106.73 225.21 136.37 264.36 162.99 290.77
  Q 182.87 310.50 202.60 330.40
  Q 203.43 331.23 204.10 331.75
  Q 204.53 332.08 205.03 331.88
  C 219.88 325.99 233.97 316.73 245.41 305.59
  Q 246.18 304.84 245.42 304.08
  Q 220.89 279.42 196.21 254.93
  Q 187.06 245.85 182.65 240.27
  Z
  M 381.13 257.55
  C 389.64 275.21 392.90 297.43 386.40 316.28
  Q 385.77 318.11 387.14 316.75
  C 396.06 307.94 406.43 299.13 413.04 288.20
  C 428.58 262.52 426.60 229.37 407.20 206.30
  Q 392.11 188.36 369.38 176.09
  C 349.68 165.45 326.95 161.50 305.25 168.06
  A 0.43 0.43 0.0 0 0 305.08 168.78
  C 309.73 173.24 314.24 178.38 318.52 182.52
  C 327.70 191.39 336.65 200.47 345.68 209.48
  C 359.90 223.66 372.37 239.38 381.13 257.55
  Z
  M 374.84 327.16
  C 398.05 289.27 371.18 244.54 344.44 217.81
  Q 321.02 194.41 297.81 171.24
  A 1.49 1.48 -33.7 0 0 296.19 170.92
  Q 273.47 180.40 255.60 197.32
  A 0.49 0.48 46.3 0 0 255.59 198.00
  Q 281.76 224.29 307.97 250.27
  C 321.96 264.14 332.84 280.80 339.18 299.41
  C 347.14 322.80 345.39 346.76 333.90 368.83
  Q 333.33 369.91 334.41 369.34
  Q 334.48 369.30 334.90 368.89
  Q 349.80 354.22 364.57 339.40
  Q 371.75 332.19 374.84 327.16
  Z
  M 155.11 292.39
  C 131.04 268.46 110.38 238.42 111.89 203.76
  C 112.22 196.22 113.78 192.02 115.10 186.02
  A 0.41 0.41 0.0 0 0 114.42 185.63
  C 108.18 191.51 100.82 198.75 96.14 204.00
  C 82.35 219.44 75.94 239.93 78.68 260.47
  C 82.33 287.82 101.11 307.18 123.52 321.27
  C 146.30 335.61 170.36 342.10 196.39 334.60
  A 0.39 0.39 0.0 0 0 196.56 333.96
  Q 175.96 313.14 155.11 292.39
  Z
  M 154.73 357.27
  C 162.40 364.99 168.03 371.33 175.46 375.57
  C 213.17 397.13 254.34 373.28 281.74 347.27
  Q 291.93 337.59 312.62 316.63
  C 318.45 310.72 324.27 304.18 330.53 298.76
  Q 331.68 297.77 331.25 296.74
  Q 322.03 274.18 304.95 256.38
  A 0.81 0.81 0.0 0 0 303.80 256.37
  C 286.70 273.42 269.29 290.36 252.55 307.88
  C 241.06 319.89 226.82 329.69 211.78 336.22
  Q 174.39 352.46 137.08 336.14
  Q 134.79 335.14 132.68 333.86
  A 0.24 0.24 0.0 0 0 132.31 334.08
  Q 132.35 334.51 132.67 334.84
  Q 143.64 346.11 154.73 357.27
  Z
  M 330.33 361.31
  Q 342.30 334.17 334.18 305.59
  Q 334.05 305.15 333.72 305.46
  C 294.77 341.71 249.35 405.51 185.44 386.89
  Q 184.33 386.56 185.13 387.40
  C 192.88 395.51 201.89 405.12 210.11 410.98
  C 237.32 430.38 273.92 427.51 298.53 405.02
  Q 319.51 385.84 330.33 361.31
  Z"
/>
<path fill="#2c4967" d="
  M 257.43 120.80
  Q 255.35 121.08 253.51 122.47
  C 226.54 136.16 204.81 160.09 184.66 180.61
  C 179.46 185.90 173.39 191.47 167.92 197.10
  A 0.48 0.48 0.0 0 1 167.11 196.87
  C 163.26 180.74 162.81 165.87 168.07 150.00
  C 175.68 127.05 193.24 101.55 214.37 88.70
  C 242.17 71.80 278.10 76.63 301.19 99.89
  C 306.21 104.95 311.35 109.97 316.13 115.12
  Q 316.91 115.96 315.79 115.69
  C 312.19 114.82 308.46 113.48 304.98 113.04
  Q 280.20 109.89 257.43 120.80
  Z"
/>
<path fill="#89d3ff" d="
  M 218.88 156.37
  C 245.76 129.98 289.04 104.49 326.58 127.42
  Q 331.83 130.62 339.69 138.42
  Q 354.29 152.89 368.75 167.48
  A 0.40 0.39 -10.6 0 1 368.31 168.12
  C 364.98 166.66 360.89 164.71 358.46 163.81
  Q 325.19 151.61 292.16 165.34
  C 277.63 171.38 262.82 181.04 251.68 192.19
  Q 224.87 219.04 197.77 246.10
  Q 197.09 246.78 196.42 246.08
  Q 179.53 228.48 170.29 205.88
  A 1.60 1.59 -33.6 0 1 170.64 204.15
  Q 194.53 180.29 218.88 156.37
  Z"
/>
<path fill="#89d3ff" d="
  M 257.43 120.80
  Q 255.60 122.43 253.51 122.47
  Q 255.35 121.08 257.43 120.80
  Z"
/>
<path fill="#5b9bd5" d="
  M 167.48 133.68
  C 148.93 170.29 157.79 208.86 182.65 240.27
  Q 187.06 245.85 196.21 254.93
  Q 220.89 279.42 245.42 304.08
  Q 246.18 304.84 245.41 305.59
  C 233.97 316.73 219.88 325.99 205.03 331.88
  Q 204.53 332.08 204.10 331.75
  Q 203.43 331.23 202.60 330.40
  Q 182.87 310.50 162.99 290.77
  C 136.37 264.36 106.73 225.21 122.07 184.58
  Q 125.84 174.61 133.27 167.02
  Q 150.09 149.82 166.74 133.14
  Q 168.80 131.09 167.48 133.68
  Z"
/>
<path fill="#022a4a" d="
  M 381.13 257.55
  C 372.37 239.38 359.90 223.66 345.68 209.48
  C 336.65 200.47 327.70 191.39 318.52 182.52
  C 314.24 178.38 309.73 173.24 305.08 168.78
  A 0.43 0.43 0.0 0 1 305.25 168.06
  C 326.95 161.50 349.68 165.45 369.38 176.09
  Q 392.11 188.36 407.20 206.30
  C 426.60 229.37 428.58 262.52 413.04 288.20
  C 406.43 299.13 396.06 307.94 387.14 316.75
  Q 385.77 318.11 386.40 316.28
  C 392.90 297.43 389.64 275.21 381.13 257.55
  Z"
/>
<path fill="#5b9bd5" d="
  M 344.44 217.81
  C 371.18 244.54 398.05 289.27 374.84 327.16
  Q 371.75 332.19 364.57 339.40
  Q 349.80 354.22 334.90 368.89
  Q 334.48 369.30 334.41 369.34
  Q 333.33 369.91 333.90 368.83
  C 345.39 346.76 347.14 322.80 339.18 299.41
  C 332.84 280.80 321.96 264.14 307.97 250.27
  Q 281.76 224.29 255.59 198.00
  A 0.49 0.48 46.3 0 1 255.60 197.32
  Q 273.47 180.40 296.19 170.92
  A 1.49 1.48 -33.7 0 1 297.81 171.24
  Q 321.02 194.41 344.44 217.81
  Z"
/>
<path fill="#022a4a" d="
  M 111.89 203.76
  C 110.38 238.42 131.04 268.46 155.11 292.39
  Q 175.96 313.14 196.56 333.96
  A 0.39 0.39 0.0 0 1 196.39 334.60
  C 170.36 342.10 146.30 335.61 123.52 321.27
  C 101.11 307.18 82.33 287.82 78.68 260.47
  C 75.94 239.93 82.35 219.44 96.14 204.00
  C 100.82 198.75 108.18 191.51 114.42 185.63
  A 0.41 0.41 0.0 0 1 115.10 186.02
  C 113.78 192.02 112.22 196.22 111.89 203.76
  Z"
/>
<path fill="#89d3ff" d="
  M 154.73 357.27
  Q 143.64 346.11 132.67 334.84
  Q 132.35 334.51 132.31 334.08
  A 0.24 0.24 0.0 0 1 132.68 333.86
  Q 134.79 335.14 137.08 336.14
  Q 174.39 352.46 211.78 336.22
  C 226.82 329.69 241.06 319.89 252.55 307.88
  C 269.29 290.36 286.70 273.42 303.80 256.37
  A 0.81 0.81 0.0 0 1 304.95 256.38
  Q 322.03 274.18 331.25 296.74
  Q 331.68 297.77 330.53 298.76
  C 324.27 304.18 318.45 310.72 312.62 316.63
  Q 291.93 337.59 281.74 347.27
  C 254.34 373.28 213.17 397.13 175.46 375.57
  C 168.03 371.33 162.40 364.99 154.73 357.27
  Z"
/>
<path fill="#2c4967" d="
  M 330.33 361.31
  Q 319.51 385.84 298.53 405.02
  C 273.92 427.51 237.32 430.38 210.11 410.98
  C 201.89 405.12 192.88 395.51 185.13 387.40
  Q 184.33 386.56 185.44 386.89
  C 249.35 405.51 294.77 341.71 333.72 305.46
  Q 334.05 305.15 334.18 305.59
  Q 342.30 334.17 330.33 361.31
  Z"
/>
</svg>
